<?xml version="1.0" encoding="utf-8" standalone="no"?>
<!DOCTYPE svg PUBLIC "-//W3C//DTD SVG 1.1//EN"
  "http://www.w3.org/Graphics/SVG/1.1/DTD/svg11.dtd">
<svg xmlns:xlink="http://www.w3.org/1999/xlink" width="534.72pt" height="318.542187pt" viewBox="0 0 534.72 318.542187" xmlns="http://www.w3.org/2000/svg" version="1.1">
 <metadata>
  <rdf:RDF xmlns:dc="http://purl.org/dc/elements/1.1/" xmlns:cc="http://creativecommons.org/ns#" xmlns:rdf="http://www.w3.org/1999/02/22-rdf-syntax-ns#">
   <cc:Work>
    <dc:type rdf:resource="http://purl.org/dc/dcmitype/StillImage"/>
    <dc:date>2025-04-26T14:06:39.315318</dc:date>
    <dc:format>image/svg+xml</dc:format>
    <dc:creator>
     <cc:Agent>
      <dc:title>Matplotlib v3.10.1, https://matplotlib.org/</dc:title>
     </cc:Agent>
    </dc:creator>
   </cc:Work>
  </rdf:RDF>
 </metadata>
 <defs>
  <style type="text/css">*{stroke-linejoin: round; stroke-linecap: butt}</style>
 </defs>
 <g id="figure_1">
  <g id="patch_1">
   <path d="M 0 318.542187 
L 534.72 318.542187 
L 534.72 0 
L 0 0 
z
" style="fill: #ffffff"/>
  </g>
  <g id="axes_1">
   <g id="patch_2">
    <path d="M 53.7325 291.6 
L 527.52 291.6 
L 527.52 7.2 
L 53.7325 7.2 
z
" style="fill: #ffffff"/>
   </g>
   <g id="patch_3">
    <path d="M 101.11125 286.030861 
L 101.11125 286.030861 
L 101.11125 286.030861 
L 101.11125 286.030861 
z
" clip-path="url(#pd52f556aa3)" style="fill: #3274a1; stroke: #3d3d3d; stroke-width: 2; stroke-linejoin: miter"/>
   </g>
   <g id="patch_4">
    <path d="M 101.11125 286.030861 
L 101.11125 286.030861 
L 101.11125 286.030861 
L 101.11125 286.030861 
z
" clip-path="url(#pd52f556aa3)" style="fill: #e1812c; stroke: #3d3d3d; stroke-width: 2; stroke-linejoin: miter"/>
   </g>
   <g id="patch_5">
    <path d="M 101.11125 286.030861 
L 101.11125 286.030861 
L 101.11125 286.030861 
L 101.11125 286.030861 
z
" clip-path="url(#pd52f556aa3)" style="fill: #3a923a; stroke: #3d3d3d; stroke-width: 2; stroke-linejoin: miter"/>
   </g>
   <g id="matplotlib.axis_1">
    <g id="xtick_1">
     <g id="line2d_1">
      <path d="M 101.11125 291.6 
L 101.11125 7.2 
" clip-path="url(#pd52f556aa3)" style="fill: none; stroke-dasharray: 4.44,1.92; stroke-dashoffset: 0; stroke: #808080; stroke-opacity: 0.6; stroke-width: 1.2"/>
     </g>
     <g id="line2d_2">
      <defs>
       <path id="m4a4aa40424" d="M 0 0 
L 0 3.5 
" style="stroke: #000000; stroke-width: 0.8"/>
      </defs>
      <g>
       <use xlink:href="#m4a4aa40424" x="101.11125" y="291.6" style="stroke: #000000; stroke-width: 0.8"/>
      </g>
     </g>
     <g id="text_1">
      <!-- Hexagon -->
      <g transform="translate(75.84125 308.295) scale(0.14 -0.14)">
       <defs>
        <path id="TimesNewRomanPSMT-48" d="M 1316 2272 
L 3284 2272 
L 3284 3484 
Q 3284 3809 3244 3913 
Q 3213 3991 3113 4047 
Q 2978 4122 2828 4122 
L 2678 4122 
L 2678 4238 
L 4491 4238 
L 4491 4122 
L 4341 4122 
Q 4191 4122 4056 4050 
Q 3956 4000 3920 3898 
Q 3884 3797 3884 3484 
L 3884 750 
Q 3884 428 3925 325 
Q 3956 247 4053 191 
Q 4191 116 4341 116 
L 4491 116 
L 4491 0 
L 2678 0 
L 2678 116 
L 2828 116 
Q 3088 116 3206 269 
Q 3284 369 3284 750 
L 3284 2041 
L 1316 2041 
L 1316 750 
Q 1316 428 1356 325 
Q 1388 247 1488 191 
Q 1622 116 1772 116 
L 1925 116 
L 1925 0 
L 109 0 
L 109 116 
L 259 116 
Q 522 116 641 269 
Q 716 369 716 750 
L 716 3484 
Q 716 3809 675 3913 
Q 644 3991 547 4047 
Q 409 4122 259 4122 
L 109 4122 
L 109 4238 
L 1925 4238 
L 1925 4122 
L 1772 4122 
Q 1622 4122 1488 4050 
Q 1391 4000 1353 3898 
Q 1316 3797 1316 3484 
L 1316 2272 
z
" transform="scale(0.015625)"/>
        <path id="TimesNewRomanPSMT-65" d="M 681 1784 
Q 678 1147 991 784 
Q 1303 422 1725 422 
Q 2006 422 2214 576 
Q 2422 731 2563 1106 
L 2659 1044 
Q 2594 616 2278 264 
Q 1963 -88 1488 -88 
Q 972 -88 605 314 
Q 238 716 238 1394 
Q 238 2128 614 2539 
Q 991 2950 1559 2950 
Q 2041 2950 2350 2633 
Q 2659 2316 2659 1784 
L 681 1784 
z
M 681 1966 
L 2006 1966 
Q 1991 2241 1941 2353 
Q 1863 2528 1708 2628 
Q 1553 2728 1384 2728 
Q 1125 2728 920 2526 
Q 716 2325 681 1966 
z
" transform="scale(0.015625)"/>
        <path id="TimesNewRomanPSMT-78" d="M 84 2863 
L 1431 2863 
L 1431 2747 
Q 1303 2747 1251 2703 
Q 1200 2659 1200 2588 
Q 1200 2513 1309 2356 
Q 1344 2306 1413 2200 
L 1616 1875 
L 1850 2200 
Q 2075 2509 2075 2591 
Q 2075 2656 2022 2701 
Q 1969 2747 1850 2747 
L 1850 2863 
L 2819 2863 
L 2819 2747 
Q 2666 2738 2553 2663 
Q 2400 2556 2134 2200 
L 1744 1678 
L 2456 653 
Q 2719 275 2831 198 
Q 2944 122 3122 113 
L 3122 0 
L 1772 0 
L 1772 113 
Q 1913 113 1991 175 
Q 2050 219 2050 291 
Q 2050 363 1850 653 
L 1431 1266 
L 972 653 
Q 759 369 759 316 
Q 759 241 829 180 
Q 900 119 1041 113 
L 1041 0 
L 106 0 
L 106 113 
Q 219 128 303 191 
Q 422 281 703 653 
L 1303 1450 
L 759 2238 
Q 528 2575 401 2661 
Q 275 2747 84 2747 
L 84 2863 
z
" transform="scale(0.015625)"/>
        <path id="TimesNewRomanPSMT-61" d="M 1822 413 
Q 1381 72 1269 19 
Q 1100 -59 909 -59 
Q 613 -59 420 144 
Q 228 347 228 678 
Q 228 888 322 1041 
Q 450 1253 767 1440 
Q 1084 1628 1822 1897 
L 1822 2009 
Q 1822 2438 1686 2597 
Q 1550 2756 1291 2756 
Q 1094 2756 978 2650 
Q 859 2544 859 2406 
L 866 2225 
Q 866 2081 792 2003 
Q 719 1925 600 1925 
Q 484 1925 411 2006 
Q 338 2088 338 2228 
Q 338 2497 613 2722 
Q 888 2947 1384 2947 
Q 1766 2947 2009 2819 
Q 2194 2722 2281 2516 
Q 2338 2381 2338 1966 
L 2338 994 
Q 2338 584 2353 492 
Q 2369 400 2405 369 
Q 2441 338 2488 338 
Q 2538 338 2575 359 
Q 2641 400 2828 588 
L 2828 413 
Q 2478 -56 2159 -56 
Q 2006 -56 1915 50 
Q 1825 156 1822 413 
z
M 1822 616 
L 1822 1706 
Q 1350 1519 1213 1441 
Q 966 1303 859 1153 
Q 753 1003 753 825 
Q 753 600 887 451 
Q 1022 303 1197 303 
Q 1434 303 1822 616 
z
" transform="scale(0.015625)"/>
        <path id="TimesNewRomanPSMT-67" d="M 966 1044 
Q 703 1172 562 1401 
Q 422 1631 422 1909 
Q 422 2334 742 2640 
Q 1063 2947 1563 2947 
Q 1972 2947 2272 2747 
L 2878 2747 
Q 3013 2747 3034 2739 
Q 3056 2731 3066 2713 
Q 3084 2684 3084 2613 
Q 3084 2531 3069 2500 
Q 3059 2484 3036 2475 
Q 3013 2466 2878 2466 
L 2506 2466 
Q 2681 2241 2681 1891 
Q 2681 1491 2375 1206 
Q 2069 922 1553 922 
Q 1341 922 1119 984 
Q 981 866 932 777 
Q 884 688 884 625 
Q 884 572 936 522 
Q 988 472 1138 450 
Q 1225 438 1575 428 
Q 2219 413 2409 384 
Q 2700 344 2873 169 
Q 3047 -6 3047 -263 
Q 3047 -616 2716 -925 
Q 2228 -1381 1444 -1381 
Q 841 -1381 425 -1109 
Q 191 -953 191 -784 
Q 191 -709 225 -634 
Q 278 -519 444 -313 
Q 466 -284 763 25 
Q 600 122 533 198 
Q 466 275 466 372 
Q 466 481 555 628 
Q 644 775 966 1044 
z
M 1509 2797 
Q 1278 2797 1122 2612 
Q 966 2428 966 2047 
Q 966 1553 1178 1281 
Q 1341 1075 1591 1075 
Q 1828 1075 1981 1253 
Q 2134 1431 2134 1813 
Q 2134 2309 1919 2591 
Q 1759 2797 1509 2797 
z
M 934 0 
Q 788 -159 713 -296 
Q 638 -434 638 -550 
Q 638 -700 819 -813 
Q 1131 -1006 1722 -1006 
Q 2284 -1006 2551 -807 
Q 2819 -609 2819 -384 
Q 2819 -222 2659 -153 
Q 2497 -84 2016 -72 
Q 1313 -53 934 0 
z
" transform="scale(0.015625)"/>
        <path id="TimesNewRomanPSMT-6f" d="M 1600 2947 
Q 2250 2947 2644 2453 
Q 2978 2031 2978 1484 
Q 2978 1100 2793 706 
Q 2609 313 2286 112 
Q 1963 -88 1566 -88 
Q 919 -88 538 428 
Q 216 863 216 1403 
Q 216 1797 411 2186 
Q 606 2575 925 2761 
Q 1244 2947 1600 2947 
z
M 1503 2744 
Q 1338 2744 1170 2645 
Q 1003 2547 900 2300 
Q 797 2053 797 1666 
Q 797 1041 1045 587 
Q 1294 134 1700 134 
Q 2003 134 2200 384 
Q 2397 634 2397 1244 
Q 2397 2006 2069 2444 
Q 1847 2744 1503 2744 
z
" transform="scale(0.015625)"/>
        <path id="TimesNewRomanPSMT-6e" d="M 1034 2341 
Q 1538 2947 1994 2947 
Q 2228 2947 2397 2830 
Q 2566 2713 2666 2444 
Q 2734 2256 2734 1869 
L 2734 647 
Q 2734 375 2778 278 
Q 2813 200 2889 156 
Q 2966 113 3172 113 
L 3172 0 
L 1756 0 
L 1756 113 
L 1816 113 
Q 2016 113 2095 173 
Q 2175 234 2206 353 
Q 2219 400 2219 647 
L 2219 1819 
Q 2219 2209 2117 2386 
Q 2016 2563 1775 2563 
Q 1403 2563 1034 2156 
L 1034 647 
Q 1034 356 1069 288 
Q 1113 197 1189 155 
Q 1266 113 1500 113 
L 1500 0 
L 84 0 
L 84 113 
L 147 113 
Q 366 113 442 223 
Q 519 334 519 647 
L 519 1709 
Q 519 2225 495 2337 
Q 472 2450 423 2490 
Q 375 2531 294 2531 
Q 206 2531 84 2484 
L 38 2597 
L 900 2947 
L 1034 2947 
L 1034 2341 
z
" transform="scale(0.015625)"/>
       </defs>
       <use xlink:href="#TimesNewRomanPSMT-48"/>
       <use xlink:href="#TimesNewRomanPSMT-65" transform="translate(72.216797 0)"/>
       <use xlink:href="#TimesNewRomanPSMT-78" transform="translate(116.601562 0)"/>
       <use xlink:href="#TimesNewRomanPSMT-61" transform="translate(166.601562 0)"/>
       <use xlink:href="#TimesNewRomanPSMT-67" transform="translate(210.986328 0)"/>
       <use xlink:href="#TimesNewRomanPSMT-6f" transform="translate(260.986328 0)"/>
       <use xlink:href="#TimesNewRomanPSMT-6e" transform="translate(310.986328 0)"/>
      </g>
     </g>
    </g>
    <g id="xtick_2">
     <g id="line2d_3">
      <path d="M 195.86875 291.6 
L 195.86875 7.2 
" clip-path="url(#pd52f556aa3)" style="fill: none; stroke-dasharray: 4.44,1.92; stroke-dashoffset: 0; stroke: #808080; stroke-opacity: 0.6; stroke-width: 1.2"/>
     </g>
     <g id="line2d_4">
      <g>
       <use xlink:href="#m4a4aa40424" x="195.86875" y="291.6" style="stroke: #000000; stroke-width: 0.8"/>
      </g>
     </g>
     <g id="text_2">
      <!-- Triangle -->
      <g transform="translate(172.403437 308.32125) scale(0.14 -0.14)">
       <defs>
        <path id="TimesNewRomanPSMT-54" d="M 3703 4238 
L 3750 3244 
L 3631 3244 
Q 3597 3506 3538 3619 
Q 3441 3800 3280 3886 
Q 3119 3972 2856 3972 
L 2259 3972 
L 2259 734 
Q 2259 344 2344 247 
Q 2463 116 2709 116 
L 2856 116 
L 2856 0 
L 1059 0 
L 1059 116 
L 1209 116 
Q 1478 116 1591 278 
Q 1659 378 1659 734 
L 1659 3972 
L 1150 3972 
Q 853 3972 728 3928 
Q 566 3869 450 3700 
Q 334 3531 313 3244 
L 194 3244 
L 244 4238 
L 3703 4238 
z
" transform="scale(0.015625)"/>
        <path id="TimesNewRomanPSMT-72" d="M 1038 2947 
L 1038 2303 
Q 1397 2947 1775 2947 
Q 1947 2947 2059 2842 
Q 2172 2738 2172 2600 
Q 2172 2478 2090 2393 
Q 2009 2309 1897 2309 
Q 1788 2309 1652 2417 
Q 1516 2525 1450 2525 
Q 1394 2525 1328 2463 
Q 1188 2334 1038 2041 
L 1038 669 
Q 1038 431 1097 309 
Q 1138 225 1241 169 
Q 1344 113 1538 113 
L 1538 0 
L 72 0 
L 72 113 
Q 291 113 397 181 
Q 475 231 506 341 
Q 522 394 522 644 
L 522 1753 
Q 522 2253 501 2348 
Q 481 2444 426 2487 
Q 372 2531 291 2531 
Q 194 2531 72 2484 
L 41 2597 
L 906 2947 
L 1038 2947 
z
" transform="scale(0.015625)"/>
        <path id="TimesNewRomanPSMT-69" d="M 928 4444 
Q 1059 4444 1151 4351 
Q 1244 4259 1244 4128 
Q 1244 3997 1151 3903 
Q 1059 3809 928 3809 
Q 797 3809 703 3903 
Q 609 3997 609 4128 
Q 609 4259 701 4351 
Q 794 4444 928 4444 
z
M 1188 2947 
L 1188 647 
Q 1188 378 1227 289 
Q 1266 200 1342 156 
Q 1419 113 1622 113 
L 1622 0 
L 231 0 
L 231 113 
Q 441 113 512 153 
Q 584 194 626 287 
Q 669 381 669 647 
L 669 1750 
Q 669 2216 641 2353 
Q 619 2453 572 2492 
Q 525 2531 444 2531 
Q 356 2531 231 2484 
L 188 2597 
L 1050 2947 
L 1188 2947 
z
" transform="scale(0.015625)"/>
        <path id="TimesNewRomanPSMT-6c" d="M 1184 4444 
L 1184 647 
Q 1184 378 1223 290 
Q 1263 203 1344 158 
Q 1425 113 1647 113 
L 1647 0 
L 244 0 
L 244 113 
Q 441 113 512 153 
Q 584 194 625 287 
Q 666 381 666 647 
L 666 3247 
Q 666 3731 644 3842 
Q 622 3953 573 3993 
Q 525 4034 450 4034 
Q 369 4034 244 3984 
L 191 4094 
L 1044 4444 
L 1184 4444 
z
" transform="scale(0.015625)"/>
       </defs>
       <use xlink:href="#TimesNewRomanPSMT-54"/>
       <use xlink:href="#TimesNewRomanPSMT-72" transform="translate(57.583984 0)"/>
       <use xlink:href="#TimesNewRomanPSMT-69" transform="translate(90.884766 0)"/>
       <use xlink:href="#TimesNewRomanPSMT-61" transform="translate(118.667969 0)"/>
       <use xlink:href="#TimesNewRomanPSMT-6e" transform="translate(163.052734 0)"/>
       <use xlink:href="#TimesNewRomanPSMT-67" transform="translate(213.052734 0)"/>
       <use xlink:href="#TimesNewRomanPSMT-6c" transform="translate(263.052734 0)"/>
       <use xlink:href="#TimesNewRomanPSMT-65" transform="translate(290.835938 0)"/>
      </g>
     </g>
    </g>
    <g id="xtick_3">
     <g id="line2d_5">
      <path d="M 290.62625 291.6 
L 290.62625 7.2 
" clip-path="url(#pd52f556aa3)" style="fill: none; stroke-dasharray: 4.44,1.92; stroke-dashoffset: 0; stroke: #808080; stroke-opacity: 0.6; stroke-width: 1.2"/>
     </g>
     <g id="line2d_6">
      <g>
       <use xlink:href="#m4a4aa40424" x="290.62625" y="291.6" style="stroke: #000000; stroke-width: 0.8"/>
      </g>
     </g>
     <g id="text_3">
      <!-- Circle -->
      <g transform="translate(273.522188 308.32125) scale(0.14 -0.14)">
       <defs>
        <path id="TimesNewRomanPSMT-43" d="M 3853 4334 
L 3950 2894 
L 3853 2894 
Q 3659 3541 3300 3825 
Q 2941 4109 2438 4109 
Q 2016 4109 1675 3895 
Q 1334 3681 1139 3212 
Q 944 2744 944 2047 
Q 944 1472 1128 1050 
Q 1313 628 1683 403 
Q 2053 178 2528 178 
Q 2941 178 3256 354 
Q 3572 531 3950 1056 
L 4047 994 
Q 3728 428 3303 165 
Q 2878 -97 2294 -97 
Q 1241 -97 663 684 
Q 231 1266 231 2053 
Q 231 2688 515 3219 
Q 800 3750 1298 4042 
Q 1797 4334 2388 4334 
Q 2847 4334 3294 4109 
Q 3425 4041 3481 4041 
Q 3566 4041 3628 4100 
Q 3709 4184 3744 4334 
L 3853 4334 
z
" transform="scale(0.015625)"/>
        <path id="TimesNewRomanPSMT-63" d="M 2631 1088 
Q 2516 522 2178 217 
Q 1841 -88 1431 -88 
Q 944 -88 581 321 
Q 219 731 219 1428 
Q 219 2103 620 2525 
Q 1022 2947 1584 2947 
Q 2006 2947 2278 2723 
Q 2550 2500 2550 2259 
Q 2550 2141 2473 2067 
Q 2397 1994 2259 1994 
Q 2075 1994 1981 2113 
Q 1928 2178 1911 2362 
Q 1894 2547 1784 2644 
Q 1675 2738 1481 2738 
Q 1169 2738 978 2506 
Q 725 2200 725 1697 
Q 725 1184 976 792 
Q 1228 400 1656 400 
Q 1963 400 2206 609 
Q 2378 753 2541 1131 
L 2631 1088 
z
" transform="scale(0.015625)"/>
       </defs>
       <use xlink:href="#TimesNewRomanPSMT-43"/>
       <use xlink:href="#TimesNewRomanPSMT-69" transform="translate(66.699219 0)"/>
       <use xlink:href="#TimesNewRomanPSMT-72" transform="translate(94.482422 0)"/>
       <use xlink:href="#TimesNewRomanPSMT-63" transform="translate(127.783203 0)"/>
       <use xlink:href="#TimesNewRomanPSMT-6c" transform="translate(172.167969 0)"/>
       <use xlink:href="#TimesNewRomanPSMT-65" transform="translate(199.951172 0)"/>
      </g>
     </g>
    </g>
    <g id="xtick_4">
     <g id="line2d_7">
      <path d="M 385.38375 291.6 
L 385.38375 7.2 
" clip-path="url(#pd52f556aa3)" style="fill: none; stroke-dasharray: 4.44,1.92; stroke-dashoffset: 0; stroke: #808080; stroke-opacity: 0.6; stroke-width: 1.2"/>
     </g>
     <g id="line2d_8">
      <g>
       <use xlink:href="#m4a4aa40424" x="385.38375" y="291.6" style="stroke: #000000; stroke-width: 0.8"/>
      </g>
     </g>
     <g id="text_4">
      <!-- Infinity -->
      <g transform="translate(364.388125 308.32125) scale(0.14 -0.14)">
       <defs>
        <path id="TimesNewRomanPSMT-49" d="M 1975 116 
L 1975 0 
L 159 0 
L 159 116 
L 309 116 
Q 572 116 691 269 
Q 766 369 766 750 
L 766 3488 
Q 766 3809 725 3913 
Q 694 3991 597 4047 
Q 459 4122 309 4122 
L 159 4122 
L 159 4238 
L 1975 4238 
L 1975 4122 
L 1822 4122 
Q 1563 4122 1444 3969 
Q 1366 3869 1366 3488 
L 1366 750 
Q 1366 428 1406 325 
Q 1438 247 1538 191 
Q 1672 116 1822 116 
L 1975 116 
z
" transform="scale(0.015625)"/>
        <path id="TimesNewRomanPSMT-66" d="M 1319 2638 
L 1319 756 
Q 1319 356 1406 250 
Q 1522 113 1716 113 
L 1975 113 
L 1975 0 
L 266 0 
L 266 113 
L 394 113 
Q 519 113 622 175 
Q 725 238 764 344 
Q 803 450 803 756 
L 803 2638 
L 247 2638 
L 247 2863 
L 803 2863 
L 803 3050 
Q 803 3478 940 3775 
Q 1078 4072 1361 4255 
Q 1644 4438 1997 4438 
Q 2325 4438 2600 4225 
Q 2781 4084 2781 3909 
Q 2781 3816 2700 3733 
Q 2619 3650 2525 3650 
Q 2453 3650 2373 3701 
Q 2294 3753 2178 3923 
Q 2063 4094 1966 4153 
Q 1869 4213 1750 4213 
Q 1606 4213 1506 4136 
Q 1406 4059 1362 3898 
Q 1319 3738 1319 3069 
L 1319 2863 
L 2056 2863 
L 2056 2638 
L 1319 2638 
z
" transform="scale(0.015625)"/>
        <path id="TimesNewRomanPSMT-74" d="M 1031 3803 
L 1031 2863 
L 1700 2863 
L 1700 2644 
L 1031 2644 
L 1031 788 
Q 1031 509 1111 412 
Q 1191 316 1316 316 
Q 1419 316 1516 380 
Q 1613 444 1666 569 
L 1788 569 
Q 1678 263 1478 108 
Q 1278 -47 1066 -47 
Q 922 -47 784 33 
Q 647 113 581 261 
Q 516 409 516 719 
L 516 2644 
L 63 2644 
L 63 2747 
Q 234 2816 414 2980 
Q 594 3144 734 3369 
Q 806 3488 934 3803 
L 1031 3803 
z
" transform="scale(0.015625)"/>
        <path id="TimesNewRomanPSMT-79" d="M 38 2863 
L 1372 2863 
L 1372 2747 
L 1306 2747 
Q 1166 2747 1095 2686 
Q 1025 2625 1025 2534 
Q 1025 2413 1128 2197 
L 1825 753 
L 2466 2334 
Q 2519 2463 2519 2588 
Q 2519 2644 2497 2672 
Q 2472 2706 2419 2726 
Q 2366 2747 2231 2747 
L 2231 2863 
L 3163 2863 
L 3163 2747 
Q 3047 2734 2984 2696 
Q 2922 2659 2847 2556 
Q 2819 2513 2741 2316 
L 1575 -541 
Q 1406 -956 1132 -1168 
Q 859 -1381 606 -1381 
Q 422 -1381 303 -1275 
Q 184 -1169 184 -1031 
Q 184 -900 270 -820 
Q 356 -741 506 -741 
Q 609 -741 788 -809 
Q 913 -856 944 -856 
Q 1038 -856 1148 -759 
Q 1259 -663 1372 -384 
L 1575 113 
L 547 2272 
Q 500 2369 397 2513 
Q 319 2622 269 2659 
Q 197 2709 38 2747 
L 38 2863 
z
" transform="scale(0.015625)"/>
       </defs>
       <use xlink:href="#TimesNewRomanPSMT-49"/>
       <use xlink:href="#TimesNewRomanPSMT-6e" transform="translate(33.300781 0)"/>
       <use xlink:href="#TimesNewRomanPSMT-66" transform="translate(83.300781 0)"/>
       <use xlink:href="#TimesNewRomanPSMT-69" transform="translate(116.601562 0)"/>
       <use xlink:href="#TimesNewRomanPSMT-6e" transform="translate(144.384766 0)"/>
       <use xlink:href="#TimesNewRomanPSMT-69" transform="translate(194.384766 0)"/>
       <use xlink:href="#TimesNewRomanPSMT-74" transform="translate(222.167969 0)"/>
       <use xlink:href="#TimesNewRomanPSMT-79" transform="translate(249.951172 0)"/>
      </g>
     </g>
    </g>
    <g id="xtick_5">
     <g id="line2d_9">
      <path d="M 480.14125 291.6 
L 480.14125 7.2 
" clip-path="url(#pd52f556aa3)" style="fill: none; stroke-dasharray: 4.44,1.92; stroke-dashoffset: 0; stroke: #808080; stroke-opacity: 0.6; stroke-width: 1.2"/>
     </g>
     <g id="line2d_10">
      <g>
       <use xlink:href="#m4a4aa40424" x="480.14125" y="291.6" style="stroke: #000000; stroke-width: 0.8"/>
      </g>
     </g>
     <g id="text_5">
      <!-- B -->
      <g transform="translate(475.472031 308.32125) scale(0.14 -0.14)">
       <defs>
        <path id="TimesNewRomanPSMT-42" d="M 2956 2163 
Q 3397 2069 3616 1863 
Q 3919 1575 3919 1159 
Q 3919 844 3719 555 
Q 3519 266 3170 133 
Q 2822 0 2106 0 
L 106 0 
L 106 116 
L 266 116 
Q 531 116 647 284 
Q 719 394 719 750 
L 719 3488 
Q 719 3881 628 3984 
Q 506 4122 266 4122 
L 106 4122 
L 106 4238 
L 1938 4238 
Q 2450 4238 2759 4163 
Q 3228 4050 3475 3764 
Q 3722 3478 3722 3106 
Q 3722 2788 3528 2536 
Q 3334 2284 2956 2163 
z
M 1319 2331 
Q 1434 2309 1582 2298 
Q 1731 2288 1909 2288 
Q 2366 2288 2595 2386 
Q 2825 2484 2947 2687 
Q 3069 2891 3069 3131 
Q 3069 3503 2766 3765 
Q 2463 4028 1881 4028 
Q 1569 4028 1319 3959 
L 1319 2331 
z
M 1319 306 
Q 1681 222 2034 222 
Q 2600 222 2897 476 
Q 3194 731 3194 1106 
Q 3194 1353 3059 1581 
Q 2925 1809 2622 1940 
Q 2319 2072 1872 2072 
Q 1678 2072 1540 2065 
Q 1403 2059 1319 2044 
L 1319 306 
z
" transform="scale(0.015625)"/>
       </defs>
       <use xlink:href="#TimesNewRomanPSMT-42"/>
      </g>
     </g>
    </g>
   </g>
   <g id="matplotlib.axis_2">
    <g id="ytick_1">
     <g id="line2d_11">
      <path d="M 53.7325 286.030861 
L 527.52 286.030861 
" clip-path="url(#pd52f556aa3)" style="fill: none; stroke-dasharray: 4.44,1.92; stroke-dashoffset: 0; stroke: #808080; stroke-opacity: 0.6; stroke-width: 1.2"/>
     </g>
     <g id="line2d_12">
      <defs>
       <path id="m446f9ca100" d="M 0 0 
L -3.5 0 
" style="stroke: #000000; stroke-width: 0.8"/>
      </defs>
      <g>
       <use xlink:href="#m446f9ca100" x="53.7325" y="286.030861" style="stroke: #000000; stroke-width: 0.8"/>
      </g>
     </g>
     <g id="text_6">
      <!-- 0 -->
      <g transform="translate(39.7325 290.891486) scale(0.14 -0.14)">
       <defs>
        <path id="TimesNewRomanPSMT-30" d="M 231 2094 
Q 231 2819 450 3342 
Q 669 3866 1031 4122 
Q 1313 4325 1613 4325 
Q 2100 4325 2488 3828 
Q 2972 3213 2972 2159 
Q 2972 1422 2759 906 
Q 2547 391 2217 158 
Q 1888 -75 1581 -75 
Q 975 -75 572 641 
Q 231 1244 231 2094 
z
M 844 2016 
Q 844 1141 1059 588 
Q 1238 122 1591 122 
Q 1759 122 1940 273 
Q 2122 425 2216 781 
Q 2359 1319 2359 2297 
Q 2359 3022 2209 3506 
Q 2097 3866 1919 4016 
Q 1791 4119 1609 4119 
Q 1397 4119 1231 3928 
Q 1006 3669 925 3112 
Q 844 2556 844 2016 
z
" transform="scale(0.015625)"/>
       </defs>
       <use xlink:href="#TimesNewRomanPSMT-30"/>
      </g>
     </g>
    </g>
    <g id="ytick_2">
     <g id="line2d_13">
      <path d="M 53.7325 233.061298 
L 527.52 233.061298 
" clip-path="url(#pd52f556aa3)" style="fill: none; stroke-dasharray: 4.44,1.92; stroke-dashoffset: 0; stroke: #808080; stroke-opacity: 0.6; stroke-width: 1.2"/>
     </g>
     <g id="line2d_14">
      <g>
       <use xlink:href="#m446f9ca100" x="53.7325" y="233.061298" style="stroke: #000000; stroke-width: 0.8"/>
      </g>
     </g>
     <g id="text_7">
      <!-- 50 -->
      <g transform="translate(32.7325 237.921923) scale(0.14 -0.14)">
       <defs>
        <path id="TimesNewRomanPSMT-35" d="M 2778 4238 
L 2534 3706 
L 1259 3706 
L 981 3138 
Q 1809 3016 2294 2522 
Q 2709 2097 2709 1522 
Q 2709 1188 2573 903 
Q 2438 619 2231 419 
Q 2025 219 1772 97 
Q 1413 -75 1034 -75 
Q 653 -75 479 54 
Q 306 184 306 341 
Q 306 428 378 495 
Q 450 563 559 563 
Q 641 563 702 538 
Q 763 513 909 409 
Q 1144 247 1384 247 
Q 1750 247 2026 523 
Q 2303 800 2303 1197 
Q 2303 1581 2056 1914 
Q 1809 2247 1375 2428 
Q 1034 2569 447 2591 
L 1259 4238 
L 2778 4238 
z
" transform="scale(0.015625)"/>
       </defs>
       <use xlink:href="#TimesNewRomanPSMT-35"/>
       <use xlink:href="#TimesNewRomanPSMT-30" transform="translate(50 0)"/>
      </g>
     </g>
    </g>
    <g id="ytick_3">
     <g id="line2d_15">
      <path d="M 53.7325 180.091736 
L 527.52 180.091736 
" clip-path="url(#pd52f556aa3)" style="fill: none; stroke-dasharray: 4.44,1.92; stroke-dashoffset: 0; stroke: #808080; stroke-opacity: 0.6; stroke-width: 1.2"/>
     </g>
     <g id="line2d_16">
      <g>
       <use xlink:href="#m446f9ca100" x="53.7325" y="180.091736" style="stroke: #000000; stroke-width: 0.8"/>
      </g>
     </g>
     <g id="text_8">
      <!-- 100 -->
      <g transform="translate(25.7325 184.952361) scale(0.14 -0.14)">
       <defs>
        <path id="TimesNewRomanPSMT-31" d="M 750 3822 
L 1781 4325 
L 1884 4325 
L 1884 747 
Q 1884 391 1914 303 
Q 1944 216 2037 169 
Q 2131 122 2419 116 
L 2419 0 
L 825 0 
L 825 116 
Q 1125 122 1212 167 
Q 1300 213 1334 289 
Q 1369 366 1369 747 
L 1369 3034 
Q 1369 3497 1338 3628 
Q 1316 3728 1258 3775 
Q 1200 3822 1119 3822 
Q 1003 3822 797 3725 
L 750 3822 
z
" transform="scale(0.015625)"/>
       </defs>
       <use xlink:href="#TimesNewRomanPSMT-31"/>
       <use xlink:href="#TimesNewRomanPSMT-30" transform="translate(50 0)"/>
       <use xlink:href="#TimesNewRomanPSMT-30" transform="translate(100 0)"/>
      </g>
     </g>
    </g>
    <g id="ytick_4">
     <g id="line2d_17">
      <path d="M 53.7325 127.122173 
L 527.52 127.122173 
" clip-path="url(#pd52f556aa3)" style="fill: none; stroke-dasharray: 4.44,1.92; stroke-dashoffset: 0; stroke: #808080; stroke-opacity: 0.6; stroke-width: 1.2"/>
     </g>
     <g id="line2d_18">
      <g>
       <use xlink:href="#m446f9ca100" x="53.7325" y="127.122173" style="stroke: #000000; stroke-width: 0.8"/>
      </g>
     </g>
     <g id="text_9">
      <!-- 150 -->
      <g transform="translate(25.7325 131.982798) scale(0.14 -0.14)">
       <use xlink:href="#TimesNewRomanPSMT-31"/>
       <use xlink:href="#TimesNewRomanPSMT-35" transform="translate(50 0)"/>
       <use xlink:href="#TimesNewRomanPSMT-30" transform="translate(100 0)"/>
      </g>
     </g>
    </g>
    <g id="ytick_5">
     <g id="line2d_19">
      <path d="M 53.7325 74.15261 
L 527.52 74.15261 
" clip-path="url(#pd52f556aa3)" style="fill: none; stroke-dasharray: 4.44,1.92; stroke-dashoffset: 0; stroke: #808080; stroke-opacity: 0.6; stroke-width: 1.2"/>
     </g>
     <g id="line2d_20">
      <g>
       <use xlink:href="#m446f9ca100" x="53.7325" y="74.15261" style="stroke: #000000; stroke-width: 0.8"/>
      </g>
     </g>
     <g id="text_10">
      <!-- 200 -->
      <g transform="translate(25.7325 79.013235) scale(0.14 -0.14)">
       <defs>
        <path id="TimesNewRomanPSMT-32" d="M 2934 816 
L 2638 0 
L 138 0 
L 138 116 
Q 1241 1122 1691 1759 
Q 2141 2397 2141 2925 
Q 2141 3328 1894 3587 
Q 1647 3847 1303 3847 
Q 991 3847 742 3664 
Q 494 3481 375 3128 
L 259 3128 
Q 338 3706 661 4015 
Q 984 4325 1469 4325 
Q 1984 4325 2329 3994 
Q 2675 3663 2675 3213 
Q 2675 2891 2525 2569 
Q 2294 2063 1775 1497 
Q 997 647 803 472 
L 1909 472 
Q 2247 472 2383 497 
Q 2519 522 2628 598 
Q 2738 675 2819 816 
L 2934 816 
z
" transform="scale(0.015625)"/>
       </defs>
       <use xlink:href="#TimesNewRomanPSMT-32"/>
       <use xlink:href="#TimesNewRomanPSMT-30" transform="translate(50 0)"/>
       <use xlink:href="#TimesNewRomanPSMT-30" transform="translate(100 0)"/>
      </g>
     </g>
    </g>
    <g id="ytick_6">
     <g id="line2d_21">
      <path d="M 53.7325 21.183048 
L 527.52 21.183048 
" clip-path="url(#pd52f556aa3)" style="fill: none; stroke-dasharray: 4.44,1.92; stroke-dashoffset: 0; stroke: #808080; stroke-opacity: 0.6; stroke-width: 1.2"/>
     </g>
     <g id="line2d_22">
      <g>
       <use xlink:href="#m446f9ca100" x="53.7325" y="21.183048" style="stroke: #000000; stroke-width: 0.8"/>
      </g>
     </g>
     <g id="text_11">
      <!-- 250 -->
      <g transform="translate(25.7325 26.043673) scale(0.14 -0.14)">
       <use xlink:href="#TimesNewRomanPSMT-32"/>
       <use xlink:href="#TimesNewRomanPSMT-35" transform="translate(50 0)"/>
       <use xlink:href="#TimesNewRomanPSMT-30" transform="translate(100 0)"/>
      </g>
     </g>
    </g>
    <g id="text_12">
     <!-- Speed (mm/sec) -->
     <g transform="translate(18.31 201.1625) rotate(-90) scale(0.16 -0.16)">
      <defs>
       <path id="TimesNewRomanPSMT-53" d="M 2934 4334 
L 2934 2869 
L 2819 2869 
Q 2763 3291 2617 3541 
Q 2472 3791 2203 3937 
Q 1934 4084 1647 4084 
Q 1322 4084 1109 3886 
Q 897 3688 897 3434 
Q 897 3241 1031 3081 
Q 1225 2847 1953 2456 
Q 2547 2138 2764 1967 
Q 2981 1797 3098 1565 
Q 3216 1334 3216 1081 
Q 3216 600 2842 251 
Q 2469 -97 1881 -97 
Q 1697 -97 1534 -69 
Q 1438 -53 1133 45 
Q 828 144 747 144 
Q 669 144 623 97 
Q 578 50 556 -97 
L 441 -97 
L 441 1356 
L 556 1356 
Q 638 900 775 673 
Q 913 447 1195 297 
Q 1478 147 1816 147 
Q 2206 147 2432 353 
Q 2659 559 2659 841 
Q 2659 997 2573 1156 
Q 2488 1316 2306 1453 
Q 2184 1547 1640 1851 
Q 1097 2156 867 2337 
Q 638 2519 519 2737 
Q 400 2956 400 3219 
Q 400 3675 750 4004 
Q 1100 4334 1641 4334 
Q 1978 4334 2356 4169 
Q 2531 4091 2603 4091 
Q 2684 4091 2736 4139 
Q 2788 4188 2819 4334 
L 2934 4334 
z
" transform="scale(0.015625)"/>
       <path id="TimesNewRomanPSMT-70" d="M -6 2578 
L 875 2934 
L 994 2934 
L 994 2266 
Q 1216 2644 1439 2795 
Q 1663 2947 1909 2947 
Q 2341 2947 2628 2609 
Q 2981 2197 2981 1534 
Q 2981 794 2556 309 
Q 2206 -88 1675 -88 
Q 1444 -88 1275 -22 
Q 1150 25 994 166 
L 994 -706 
Q 994 -1000 1030 -1079 
Q 1066 -1159 1155 -1206 
Q 1244 -1253 1478 -1253 
L 1478 -1369 
L -22 -1369 
L -22 -1253 
L 56 -1253 
Q 228 -1256 350 -1188 
Q 409 -1153 442 -1076 
Q 475 -1000 475 -688 
L 475 2019 
Q 475 2297 450 2372 
Q 425 2447 370 2484 
Q 316 2522 222 2522 
Q 147 2522 31 2478 
L -6 2578 
z
M 994 2081 
L 994 1013 
Q 994 666 1022 556 
Q 1066 375 1236 237 
Q 1406 100 1666 100 
Q 1978 100 2172 344 
Q 2425 663 2425 1241 
Q 2425 1897 2138 2250 
Q 1938 2494 1663 2494 
Q 1513 2494 1366 2419 
Q 1253 2363 994 2081 
z
" transform="scale(0.015625)"/>
       <path id="TimesNewRomanPSMT-64" d="M 2222 322 
Q 2013 103 1813 7 
Q 1613 -88 1381 -88 
Q 913 -88 563 304 
Q 213 697 213 1313 
Q 213 1928 600 2439 
Q 988 2950 1597 2950 
Q 1975 2950 2222 2709 
L 2222 3238 
Q 2222 3728 2198 3840 
Q 2175 3953 2125 3993 
Q 2075 4034 2000 4034 
Q 1919 4034 1784 3984 
L 1744 4094 
L 2597 4444 
L 2738 4444 
L 2738 1134 
Q 2738 631 2761 520 
Q 2784 409 2836 365 
Q 2888 322 2956 322 
Q 3041 322 3181 375 
L 3216 266 
L 2366 -88 
L 2222 -88 
L 2222 322 
z
M 2222 541 
L 2222 2016 
Q 2203 2228 2109 2403 
Q 2016 2578 1861 2667 
Q 1706 2756 1559 2756 
Q 1284 2756 1069 2509 
Q 784 2184 784 1559 
Q 784 928 1059 592 
Q 1334 256 1672 256 
Q 1956 256 2222 541 
z
" transform="scale(0.015625)"/>
       <path id="TimesNewRomanPSMT-20" transform="scale(0.015625)"/>
       <path id="TimesNewRomanPSMT-28" d="M 1988 -1253 
L 1988 -1369 
Q 1516 -1131 1200 -813 
Q 750 -359 506 256 
Q 263 872 263 1534 
Q 263 2503 741 3301 
Q 1219 4100 1988 4444 
L 1988 4313 
Q 1603 4100 1356 3731 
Q 1109 3363 987 2797 
Q 866 2231 866 1616 
Q 866 947 969 400 
Q 1050 -31 1165 -292 
Q 1281 -553 1476 -793 
Q 1672 -1034 1988 -1253 
z
" transform="scale(0.015625)"/>
       <path id="TimesNewRomanPSMT-6d" d="M 1050 2338 
Q 1363 2650 1419 2697 
Q 1559 2816 1721 2881 
Q 1884 2947 2044 2947 
Q 2313 2947 2506 2790 
Q 2700 2634 2766 2338 
Q 3088 2713 3309 2830 
Q 3531 2947 3766 2947 
Q 3994 2947 4170 2830 
Q 4347 2713 4450 2447 
Q 4519 2266 4519 1878 
L 4519 647 
Q 4519 378 4559 278 
Q 4591 209 4675 161 
Q 4759 113 4950 113 
L 4950 0 
L 3538 0 
L 3538 113 
L 3597 113 
Q 3781 113 3884 184 
Q 3956 234 3988 344 
Q 4000 397 4000 647 
L 4000 1878 
Q 4000 2228 3916 2372 
Q 3794 2572 3525 2572 
Q 3359 2572 3192 2489 
Q 3025 2406 2788 2181 
L 2781 2147 
L 2788 2013 
L 2788 647 
Q 2788 353 2820 281 
Q 2853 209 2943 161 
Q 3034 113 3253 113 
L 3253 0 
L 1806 0 
L 1806 113 
Q 2044 113 2133 169 
Q 2222 225 2256 338 
Q 2272 391 2272 647 
L 2272 1878 
Q 2272 2228 2169 2381 
Q 2031 2581 1784 2581 
Q 1616 2581 1450 2491 
Q 1191 2353 1050 2181 
L 1050 647 
Q 1050 366 1089 281 
Q 1128 197 1204 155 
Q 1281 113 1516 113 
L 1516 0 
L 100 0 
L 100 113 
Q 297 113 375 155 
Q 453 197 493 289 
Q 534 381 534 647 
L 534 1741 
Q 534 2213 506 2350 
Q 484 2453 437 2492 
Q 391 2531 309 2531 
Q 222 2531 100 2484 
L 53 2597 
L 916 2947 
L 1050 2947 
L 1050 2338 
z
" transform="scale(0.015625)"/>
       <path id="TimesNewRomanPSMT-2f" d="M 1794 4444 
L 259 -88 
L 9 -88 
L 1544 4444 
L 1794 4444 
z
" transform="scale(0.015625)"/>
       <path id="TimesNewRomanPSMT-73" d="M 2050 2947 
L 2050 1972 
L 1947 1972 
Q 1828 2431 1642 2597 
Q 1456 2763 1169 2763 
Q 950 2763 815 2647 
Q 681 2531 681 2391 
Q 681 2216 781 2091 
Q 878 1963 1175 1819 
L 1631 1597 
Q 2266 1288 2266 781 
Q 2266 391 1970 151 
Q 1675 -88 1309 -88 
Q 1047 -88 709 6 
Q 606 38 541 38 
Q 469 38 428 -44 
L 325 -44 
L 325 978 
L 428 978 
Q 516 541 762 319 
Q 1009 97 1316 97 
Q 1531 97 1667 223 
Q 1803 350 1803 528 
Q 1803 744 1651 891 
Q 1500 1038 1047 1263 
Q 594 1488 453 1669 
Q 313 1847 313 2119 
Q 313 2472 555 2709 
Q 797 2947 1181 2947 
Q 1350 2947 1591 2875 
Q 1750 2828 1803 2828 
Q 1853 2828 1881 2850 
Q 1909 2872 1947 2947 
L 2050 2947 
z
" transform="scale(0.015625)"/>
       <path id="TimesNewRomanPSMT-29" d="M 144 4313 
L 144 4444 
Q 619 4209 934 3891 
Q 1381 3434 1625 2820 
Q 1869 2206 1869 1541 
Q 1869 572 1392 -226 
Q 916 -1025 144 -1369 
L 144 -1253 
Q 528 -1038 776 -670 
Q 1025 -303 1145 264 
Q 1266 831 1266 1447 
Q 1266 2113 1163 2663 
Q 1084 3094 967 3353 
Q 850 3613 656 3853 
Q 463 4094 144 4313 
z
" transform="scale(0.015625)"/>
      </defs>
      <use xlink:href="#TimesNewRomanPSMT-53"/>
      <use xlink:href="#TimesNewRomanPSMT-70" transform="translate(55.615234 0)"/>
      <use xlink:href="#TimesNewRomanPSMT-65" transform="translate(105.615234 0)"/>
      <use xlink:href="#TimesNewRomanPSMT-65" transform="translate(150 0)"/>
      <use xlink:href="#TimesNewRomanPSMT-64" transform="translate(194.384766 0)"/>
      <use xlink:href="#TimesNewRomanPSMT-20" transform="translate(244.384766 0)"/>
      <use xlink:href="#TimesNewRomanPSMT-28" transform="translate(269.384766 0)"/>
      <use xlink:href="#TimesNewRomanPSMT-6d" transform="translate(302.685547 0)"/>
      <use xlink:href="#TimesNewRomanPSMT-6d" transform="translate(380.46875 0)"/>
      <use xlink:href="#TimesNewRomanPSMT-2f" transform="translate(458.251953 0)"/>
      <use xlink:href="#TimesNewRomanPSMT-73" transform="translate(486.035156 0)"/>
      <use xlink:href="#TimesNewRomanPSMT-65" transform="translate(524.951172 0)"/>
      <use xlink:href="#TimesNewRomanPSMT-63" transform="translate(569.335938 0)"/>
      <use xlink:href="#TimesNewRomanPSMT-29" transform="translate(613.720703 0)"/>
     </g>
    </g>
   </g>
   <g id="patch_6">
    <path d="M 77.421875 259.81964 
L 93.214792 259.81964 
L 93.214792 238.888328 
L 77.421875 238.888328 
L 77.421875 259.81964 
z
" clip-path="url(#pd52f556aa3)" style="fill: #3274a1; stroke: #3d3d3d; stroke-width: 2; stroke-linejoin: miter"/>
   </g>
   <g id="line2d_23">
    <path d="M 85.318333 259.81964 
L 85.318333 262.269876 
" clip-path="url(#pd52f556aa3)" style="fill: none; stroke: #3d3d3d; stroke-width: 2"/>
   </g>
   <g id="line2d_24">
    <path d="M 85.318333 238.888328 
L 85.318333 235.024479 
" clip-path="url(#pd52f556aa3)" style="fill: none; stroke: #3d3d3d; stroke-width: 2"/>
   </g>
   <g id="line2d_25">
    <path d="M 81.370104 262.269876 
L 89.266563 262.269876 
" clip-path="url(#pd52f556aa3)" style="fill: none; stroke: #3d3d3d; stroke-width: 2; stroke-linecap: square"/>
   </g>
   <g id="line2d_26">
    <path d="M 81.370104 235.024479 
L 89.266563 235.024479 
" clip-path="url(#pd52f556aa3)" style="fill: none; stroke: #3d3d3d; stroke-width: 2; stroke-linecap: square"/>
   </g>
   <g id="line2d_27"/>
   <g id="patch_7">
    <path d="M 172.179375 243.116148 
L 187.972292 243.116148 
L 187.972292 227.783229 
L 172.179375 227.783229 
L 172.179375 243.116148 
z
" clip-path="url(#pd52f556aa3)" style="fill: #3274a1; stroke: #3d3d3d; stroke-width: 2; stroke-linejoin: miter"/>
   </g>
   <g id="line2d_28">
    <path d="M 180.075833 243.116148 
L 180.075833 252.090962 
" clip-path="url(#pd52f556aa3)" style="fill: none; stroke: #3d3d3d; stroke-width: 2"/>
   </g>
   <g id="line2d_29">
    <path d="M 180.075833 227.783229 
L 180.075833 217.613073 
" clip-path="url(#pd52f556aa3)" style="fill: none; stroke: #3d3d3d; stroke-width: 2"/>
   </g>
   <g id="line2d_30">
    <path d="M 176.127604 252.090962 
L 184.024063 252.090962 
" clip-path="url(#pd52f556aa3)" style="fill: none; stroke: #3d3d3d; stroke-width: 2; stroke-linecap: square"/>
   </g>
   <g id="line2d_31">
    <path d="M 176.127604 217.613073 
L 184.024063 217.613073 
" clip-path="url(#pd52f556aa3)" style="fill: none; stroke: #3d3d3d; stroke-width: 2; stroke-linecap: square"/>
   </g>
   <g id="line2d_32">
    <defs>
     <path id="m5de6c111c4" d="M 0 2 
C 0.530406 2 1.03916 1.789267 1.414214 1.414214 
C 1.789267 1.03916 2 0.530406 2 0 
C 2 -0.530406 1.789267 -1.03916 1.414214 -1.414214 
C 1.03916 -1.789267 0.530406 -2 0 -2 
C -0.530406 -2 -1.03916 -1.789267 -1.414214 -1.414214 
C -1.789267 -1.03916 -2 -0.530406 -2 0 
C -2 0.530406 -1.789267 1.03916 -1.414214 1.414214 
C -1.03916 1.789267 -0.530406 2 0 2 
z
" style="stroke: #3d3d3d"/>
    </defs>
    <g clip-path="url(#pd52f556aa3)">
     <use xlink:href="#m5de6c111c4" x="180.075833" y="201.260243" style="fill-opacity: 0; stroke: #3d3d3d"/>
    </g>
   </g>
   <g id="patch_8">
    <path d="M 266.936875 237.568106 
L 282.729792 237.568106 
L 282.729792 217.444976 
L 266.936875 217.444976 
L 266.936875 237.568106 
z
" clip-path="url(#pd52f556aa3)" style="fill: #3274a1; stroke: #3d3d3d; stroke-width: 2; stroke-linejoin: miter"/>
   </g>
   <g id="line2d_33">
    <path d="M 274.833333 237.568106 
L 274.833333 252.487368 
" clip-path="url(#pd52f556aa3)" style="fill: none; stroke: #3d3d3d; stroke-width: 2"/>
   </g>
   <g id="line2d_34">
    <path d="M 274.833333 217.444976 
L 274.833333 212.588596 
" clip-path="url(#pd52f556aa3)" style="fill: none; stroke: #3d3d3d; stroke-width: 2"/>
   </g>
   <g id="line2d_35">
    <path d="M 270.885104 252.487368 
L 278.781563 252.487368 
" clip-path="url(#pd52f556aa3)" style="fill: none; stroke: #3d3d3d; stroke-width: 2; stroke-linecap: square"/>
   </g>
   <g id="line2d_36">
    <path d="M 270.885104 212.588596 
L 278.781563 212.588596 
" clip-path="url(#pd52f556aa3)" style="fill: none; stroke: #3d3d3d; stroke-width: 2; stroke-linecap: square"/>
   </g>
   <g id="line2d_37"/>
   <g id="patch_9">
    <path d="M 361.694375 229.199811 
L 377.487292 229.199811 
L 377.487292 204.24058 
L 361.694375 204.24058 
L 361.694375 229.199811 
z
" clip-path="url(#pd52f556aa3)" style="fill: #3274a1; stroke: #3d3d3d; stroke-width: 2; stroke-linejoin: miter"/>
   </g>
   <g id="line2d_38">
    <path d="M 369.590833 229.199811 
L 369.590833 243.733561 
" clip-path="url(#pd52f556aa3)" style="fill: none; stroke: #3d3d3d; stroke-width: 2"/>
   </g>
   <g id="line2d_39">
    <path d="M 369.590833 204.24058 
L 369.590833 194.366793 
" clip-path="url(#pd52f556aa3)" style="fill: none; stroke: #3d3d3d; stroke-width: 2"/>
   </g>
   <g id="line2d_40">
    <path d="M 365.642604 243.733561 
L 373.539062 243.733561 
" clip-path="url(#pd52f556aa3)" style="fill: none; stroke: #3d3d3d; stroke-width: 2; stroke-linecap: square"/>
   </g>
   <g id="line2d_41">
    <path d="M 365.642604 194.366793 
L 373.539062 194.366793 
" clip-path="url(#pd52f556aa3)" style="fill: none; stroke: #3d3d3d; stroke-width: 2; stroke-linecap: square"/>
   </g>
   <g id="line2d_42"/>
   <g id="patch_10">
    <path d="M 456.451875 243.140333 
L 472.244792 243.140333 
L 472.244792 219.680149 
L 456.451875 219.680149 
L 456.451875 243.140333 
z
" clip-path="url(#pd52f556aa3)" style="fill: #3274a1; stroke: #3d3d3d; stroke-width: 2; stroke-linejoin: miter"/>
   </g>
   <g id="line2d_43">
    <path d="M 464.348333 243.140333 
L 464.348333 257.594638 
" clip-path="url(#pd52f556aa3)" style="fill: none; stroke: #3d3d3d; stroke-width: 2"/>
   </g>
   <g id="line2d_44">
    <path d="M 464.348333 219.680149 
L 464.348333 210.845269 
" clip-path="url(#pd52f556aa3)" style="fill: none; stroke: #3d3d3d; stroke-width: 2"/>
   </g>
   <g id="line2d_45">
    <path d="M 460.400104 257.594638 
L 468.296562 257.594638 
" clip-path="url(#pd52f556aa3)" style="fill: none; stroke: #3d3d3d; stroke-width: 2; stroke-linecap: square"/>
   </g>
   <g id="line2d_46">
    <path d="M 460.400104 210.845269 
L 468.296562 210.845269 
" clip-path="url(#pd52f556aa3)" style="fill: none; stroke: #3d3d3d; stroke-width: 2; stroke-linecap: square"/>
   </g>
   <g id="line2d_47"/>
   <g id="patch_11">
    <path d="M 93.214792 254.767505 
L 109.007708 254.767505 
L 109.007708 216.572736 
L 93.214792 216.572736 
L 93.214792 254.767505 
z
" clip-path="url(#pd52f556aa3)" style="fill: #e1812c; stroke: #3d3d3d; stroke-width: 2; stroke-linejoin: miter"/>
   </g>
   <g id="line2d_48">
    <path d="M 101.11125 254.767505 
L 101.11125 273.826491 
" clip-path="url(#pd52f556aa3)" style="fill: none; stroke: #3d3d3d; stroke-width: 2"/>
   </g>
   <g id="line2d_49">
    <path d="M 101.11125 216.572736 
L 101.11125 190.195327 
" clip-path="url(#pd52f556aa3)" style="fill: none; stroke: #3d3d3d; stroke-width: 2"/>
   </g>
   <g id="line2d_50">
    <path d="M 97.163021 273.826491 
L 105.059479 273.826491 
" clip-path="url(#pd52f556aa3)" style="fill: none; stroke: #3d3d3d; stroke-width: 2; stroke-linecap: square"/>
   </g>
   <g id="line2d_51">
    <path d="M 97.163021 190.195327 
L 105.059479 190.195327 
" clip-path="url(#pd52f556aa3)" style="fill: none; stroke: #3d3d3d; stroke-width: 2; stroke-linecap: square"/>
   </g>
   <g id="line2d_52">
    <g clip-path="url(#pd52f556aa3)">
     <use xlink:href="#m5de6c111c4" x="101.11125" y="153.379343" style="fill-opacity: 0; stroke: #3d3d3d"/>
    </g>
   </g>
   <g id="patch_12">
    <path d="M 187.972292 254.01889 
L 203.765208 254.01889 
L 203.765208 181.042755 
L 187.972292 181.042755 
L 187.972292 254.01889 
z
" clip-path="url(#pd52f556aa3)" style="fill: #e1812c; stroke: #3d3d3d; stroke-width: 2; stroke-linejoin: miter"/>
   </g>
   <g id="line2d_53">
    <path d="M 195.86875 254.01889 
L 195.86875 267.464134 
" clip-path="url(#pd52f556aa3)" style="fill: none; stroke: #3d3d3d; stroke-width: 2"/>
   </g>
   <g id="line2d_54">
    <path d="M 195.86875 181.042755 
L 195.86875 89.369837 
" clip-path="url(#pd52f556aa3)" style="fill: none; stroke: #3d3d3d; stroke-width: 2"/>
   </g>
   <g id="line2d_55">
    <path d="M 191.920521 267.464134 
L 199.816979 267.464134 
" clip-path="url(#pd52f556aa3)" style="fill: none; stroke: #3d3d3d; stroke-width: 2; stroke-linecap: square"/>
   </g>
   <g id="line2d_56">
    <path d="M 191.920521 89.369837 
L 199.816979 89.369837 
" clip-path="url(#pd52f556aa3)" style="fill: none; stroke: #3d3d3d; stroke-width: 2; stroke-linecap: square"/>
   </g>
   <g id="line2d_57"/>
   <g id="patch_13">
    <path d="M 282.729792 235.193399 
L 298.522708 235.193399 
L 298.522708 193.448105 
L 282.729792 193.448105 
L 282.729792 235.193399 
z
" clip-path="url(#pd52f556aa3)" style="fill: #e1812c; stroke: #3d3d3d; stroke-width: 2; stroke-linejoin: miter"/>
   </g>
   <g id="line2d_58">
    <path d="M 290.62625 235.193399 
L 290.62625 255.499974 
" clip-path="url(#pd52f556aa3)" style="fill: none; stroke: #3d3d3d; stroke-width: 2"/>
   </g>
   <g id="line2d_59">
    <path d="M 290.62625 193.448105 
L 290.62625 185.063272 
" clip-path="url(#pd52f556aa3)" style="fill: none; stroke: #3d3d3d; stroke-width: 2"/>
   </g>
   <g id="line2d_60">
    <path d="M 286.678021 255.499974 
L 294.574479 255.499974 
" clip-path="url(#pd52f556aa3)" style="fill: none; stroke: #3d3d3d; stroke-width: 2; stroke-linecap: square"/>
   </g>
   <g id="line2d_61">
    <path d="M 286.678021 185.063272 
L 294.574479 185.063272 
" clip-path="url(#pd52f556aa3)" style="fill: none; stroke: #3d3d3d; stroke-width: 2; stroke-linecap: square"/>
   </g>
   <g id="line2d_62">
    <g clip-path="url(#pd52f556aa3)">
     <use xlink:href="#m5de6c111c4" x="290.62625" y="119.230937" style="fill-opacity: 0; stroke: #3d3d3d"/>
     <use xlink:href="#m5de6c111c4" x="290.62625" y="74.763228" style="fill-opacity: 0; stroke: #3d3d3d"/>
    </g>
   </g>
   <g id="patch_14">
    <path d="M 377.487292 186.789537 
L 393.280208 186.789537 
L 393.280208 76.906859 
L 377.487292 76.906859 
L 377.487292 186.789537 
z
" clip-path="url(#pd52f556aa3)" style="fill: #e1812c; stroke: #3d3d3d; stroke-width: 2; stroke-linejoin: miter"/>
   </g>
   <g id="line2d_63">
    <path d="M 385.38375 186.789537 
L 385.38375 260.110242 
" clip-path="url(#pd52f556aa3)" style="fill: none; stroke: #3d3d3d; stroke-width: 2"/>
   </g>
   <g id="line2d_64">
    <path d="M 385.38375 76.906859 
L 385.38375 20.127273 
" clip-path="url(#pd52f556aa3)" style="fill: none; stroke: #3d3d3d; stroke-width: 2"/>
   </g>
   <g id="line2d_65">
    <path d="M 381.435521 260.110242 
L 389.331979 260.110242 
" clip-path="url(#pd52f556aa3)" style="fill: none; stroke: #3d3d3d; stroke-width: 2; stroke-linecap: square"/>
   </g>
   <g id="line2d_66">
    <path d="M 381.435521 20.127273 
L 389.331979 20.127273 
" clip-path="url(#pd52f556aa3)" style="fill: none; stroke: #3d3d3d; stroke-width: 2; stroke-linecap: square"/>
   </g>
   <g id="line2d_67"/>
   <g id="patch_15">
    <path d="M 472.244792 233.421073 
L 488.037708 233.421073 
L 488.037708 221.766631 
L 472.244792 221.766631 
L 472.244792 233.421073 
z
" clip-path="url(#pd52f556aa3)" style="fill: #e1812c; stroke: #3d3d3d; stroke-width: 2; stroke-linejoin: miter"/>
   </g>
   <g id="line2d_68">
    <path d="M 480.14125 233.421073 
L 480.14125 247.986135 
" clip-path="url(#pd52f556aa3)" style="fill: none; stroke: #3d3d3d; stroke-width: 2"/>
   </g>
   <g id="line2d_69">
    <path d="M 480.14125 221.766631 
L 480.14125 207.322874 
" clip-path="url(#pd52f556aa3)" style="fill: none; stroke: #3d3d3d; stroke-width: 2"/>
   </g>
   <g id="line2d_70">
    <path d="M 476.193021 247.986135 
L 484.089479 247.986135 
" clip-path="url(#pd52f556aa3)" style="fill: none; stroke: #3d3d3d; stroke-width: 2; stroke-linecap: square"/>
   </g>
   <g id="line2d_71">
    <path d="M 476.193021 207.322874 
L 484.089479 207.322874 
" clip-path="url(#pd52f556aa3)" style="fill: none; stroke: #3d3d3d; stroke-width: 2; stroke-linecap: square"/>
   </g>
   <g id="line2d_72">
    <g clip-path="url(#pd52f556aa3)">
     <use xlink:href="#m5de6c111c4" x="480.14125" y="265.08351" style="fill-opacity: 0; stroke: #3d3d3d"/>
    </g>
   </g>
   <g id="patch_16">
    <path d="M 109.007708 269.370128 
L 124.800625 269.370128 
L 124.800625 256.700079 
L 109.007708 256.700079 
L 109.007708 269.370128 
z
" clip-path="url(#pd52f556aa3)" style="fill: #3a923a; stroke: #3d3d3d; stroke-width: 2; stroke-linejoin: miter"/>
   </g>
   <g id="line2d_73">
    <path d="M 116.904167 269.370128 
L 116.904167 278.672727 
" clip-path="url(#pd52f556aa3)" style="fill: none; stroke: #3d3d3d; stroke-width: 2"/>
   </g>
   <g id="line2d_74">
    <path d="M 116.904167 256.700079 
L 116.904167 241.872096 
" clip-path="url(#pd52f556aa3)" style="fill: none; stroke: #3d3d3d; stroke-width: 2"/>
   </g>
   <g id="line2d_75">
    <path d="M 112.955938 278.672727 
L 120.852396 278.672727 
" clip-path="url(#pd52f556aa3)" style="fill: none; stroke: #3d3d3d; stroke-width: 2; stroke-linecap: square"/>
   </g>
   <g id="line2d_76">
    <path d="M 112.955938 241.872096 
L 120.852396 241.872096 
" clip-path="url(#pd52f556aa3)" style="fill: none; stroke: #3d3d3d; stroke-width: 2; stroke-linecap: square"/>
   </g>
   <g id="line2d_77"/>
   <g id="patch_17">
    <path d="M 203.765208 265.845389 
L 219.558125 265.845389 
L 219.558125 240.767442 
L 203.765208 240.767442 
L 203.765208 265.845389 
z
" clip-path="url(#pd52f556aa3)" style="fill: #3a923a; stroke: #3d3d3d; stroke-width: 2; stroke-linejoin: miter"/>
   </g>
   <g id="line2d_78">
    <path d="M 211.661667 265.845389 
L 211.661667 271.931553 
" clip-path="url(#pd52f556aa3)" style="fill: none; stroke: #3d3d3d; stroke-width: 2"/>
   </g>
   <g id="line2d_79">
    <path d="M 211.661667 240.767442 
L 211.661667 216.626057 
" clip-path="url(#pd52f556aa3)" style="fill: none; stroke: #3d3d3d; stroke-width: 2"/>
   </g>
   <g id="line2d_80">
    <path d="M 207.713437 271.931553 
L 215.609896 271.931553 
" clip-path="url(#pd52f556aa3)" style="fill: none; stroke: #3d3d3d; stroke-width: 2; stroke-linecap: square"/>
   </g>
   <g id="line2d_81">
    <path d="M 207.713437 216.626057 
L 215.609896 216.626057 
" clip-path="url(#pd52f556aa3)" style="fill: none; stroke: #3d3d3d; stroke-width: 2; stroke-linecap: square"/>
   </g>
   <g id="line2d_82"/>
   <g id="patch_18">
    <path d="M 298.522708 261.068922 
L 314.315625 261.068922 
L 314.315625 242.992708 
L 298.522708 242.992708 
L 298.522708 261.068922 
z
" clip-path="url(#pd52f556aa3)" style="fill: #3a923a; stroke: #3d3d3d; stroke-width: 2; stroke-linejoin: miter"/>
   </g>
   <g id="line2d_83">
    <path d="M 306.419167 261.068922 
L 306.419167 275.85248 
" clip-path="url(#pd52f556aa3)" style="fill: none; stroke: #3d3d3d; stroke-width: 2"/>
   </g>
   <g id="line2d_84">
    <path d="M 306.419167 242.992708 
L 306.419167 233.801711 
" clip-path="url(#pd52f556aa3)" style="fill: none; stroke: #3d3d3d; stroke-width: 2"/>
   </g>
   <g id="line2d_85">
    <path d="M 302.470937 275.85248 
L 310.367396 275.85248 
" clip-path="url(#pd52f556aa3)" style="fill: none; stroke: #3d3d3d; stroke-width: 2; stroke-linecap: square"/>
   </g>
   <g id="line2d_86">
    <path d="M 302.470937 233.801711 
L 310.367396 233.801711 
" clip-path="url(#pd52f556aa3)" style="fill: none; stroke: #3d3d3d; stroke-width: 2; stroke-linecap: square"/>
   </g>
   <g id="line2d_87"/>
   <g id="patch_19">
    <path d="M 393.280208 248.394578 
L 409.073125 248.394578 
L 409.073125 219.259496 
L 393.280208 219.259496 
L 393.280208 248.394578 
z
" clip-path="url(#pd52f556aa3)" style="fill: #3a923a; stroke: #3d3d3d; stroke-width: 2; stroke-linejoin: miter"/>
   </g>
   <g id="line2d_88">
    <path d="M 401.176667 248.394578 
L 401.176667 270.507673 
" clip-path="url(#pd52f556aa3)" style="fill: none; stroke: #3d3d3d; stroke-width: 2"/>
   </g>
   <g id="line2d_89">
    <path d="M 401.176667 219.259496 
L 401.176667 199.599237 
" clip-path="url(#pd52f556aa3)" style="fill: none; stroke: #3d3d3d; stroke-width: 2"/>
   </g>
   <g id="line2d_90">
    <path d="M 397.228438 270.507673 
L 405.124896 270.507673 
" clip-path="url(#pd52f556aa3)" style="fill: none; stroke: #3d3d3d; stroke-width: 2; stroke-linecap: square"/>
   </g>
   <g id="line2d_91">
    <path d="M 397.228438 199.599237 
L 405.124896 199.599237 
" clip-path="url(#pd52f556aa3)" style="fill: none; stroke: #3d3d3d; stroke-width: 2; stroke-linecap: square"/>
   </g>
   <g id="line2d_92"/>
   <g id="patch_20">
    <path d="M 488.037708 257.429671 
L 503.830625 257.429671 
L 503.830625 245.900472 
L 488.037708 245.900472 
L 488.037708 257.429671 
z
" clip-path="url(#pd52f556aa3)" style="fill: #3a923a; stroke: #3d3d3d; stroke-width: 2; stroke-linejoin: miter"/>
   </g>
   <g id="line2d_93">
    <path d="M 495.934167 257.429671 
L 495.934167 268.734156 
" clip-path="url(#pd52f556aa3)" style="fill: none; stroke: #3d3d3d; stroke-width: 2"/>
   </g>
   <g id="line2d_94">
    <path d="M 495.934167 245.900472 
L 495.934167 240.087863 
" clip-path="url(#pd52f556aa3)" style="fill: none; stroke: #3d3d3d; stroke-width: 2"/>
   </g>
   <g id="line2d_95">
    <path d="M 491.985937 268.734156 
L 499.882396 268.734156 
" clip-path="url(#pd52f556aa3)" style="fill: none; stroke: #3d3d3d; stroke-width: 2; stroke-linecap: square"/>
   </g>
   <g id="line2d_96">
    <path d="M 491.985937 240.087863 
L 499.882396 240.087863 
" clip-path="url(#pd52f556aa3)" style="fill: none; stroke: #3d3d3d; stroke-width: 2; stroke-linecap: square"/>
   </g>
   <g id="line2d_97"/>
   <g id="line2d_98">
    <path d="M 77.421875 244.392726 
L 93.214792 244.392726 
" clip-path="url(#pd52f556aa3)" style="fill: none; stroke: #3d3d3d; stroke-width: 2"/>
   </g>
   <g id="line2d_99">
    <path d="M 172.179375 240.008443 
L 187.972292 240.008443 
" clip-path="url(#pd52f556aa3)" style="fill: none; stroke: #3d3d3d; stroke-width: 2"/>
   </g>
   <g id="line2d_100">
    <path d="M 266.936875 224.866396 
L 282.729792 224.866396 
" clip-path="url(#pd52f556aa3)" style="fill: none; stroke: #3d3d3d; stroke-width: 2"/>
   </g>
   <g id="line2d_101">
    <path d="M 361.694375 214.962266 
L 377.487292 214.962266 
" clip-path="url(#pd52f556aa3)" style="fill: none; stroke: #3d3d3d; stroke-width: 2"/>
   </g>
   <g id="line2d_102">
    <path d="M 456.451875 231.428177 
L 472.244792 231.428177 
" clip-path="url(#pd52f556aa3)" style="fill: none; stroke: #3d3d3d; stroke-width: 2"/>
   </g>
   <g id="line2d_103">
    <path d="M 93.214792 244.340255 
L 109.007708 244.340255 
" clip-path="url(#pd52f556aa3)" style="fill: none; stroke: #3d3d3d; stroke-width: 2"/>
   </g>
   <g id="line2d_104">
    <path d="M 187.972292 221.552013 
L 203.765208 221.552013 
" clip-path="url(#pd52f556aa3)" style="fill: none; stroke: #3d3d3d; stroke-width: 2"/>
   </g>
   <g id="line2d_105">
    <path d="M 282.729792 222.090784 
L 298.522708 222.090784 
" clip-path="url(#pd52f556aa3)" style="fill: none; stroke: #3d3d3d; stroke-width: 2"/>
   </g>
   <g id="line2d_106">
    <path d="M 377.487292 179.2068 
L 393.280208 179.2068 
" clip-path="url(#pd52f556aa3)" style="fill: none; stroke: #3d3d3d; stroke-width: 2"/>
   </g>
   <g id="line2d_107">
    <path d="M 472.244792 225.689829 
L 488.037708 225.689829 
" clip-path="url(#pd52f556aa3)" style="fill: none; stroke: #3d3d3d; stroke-width: 2"/>
   </g>
   <g id="line2d_108">
    <path d="M 109.007708 260.983807 
L 124.800625 260.983807 
" clip-path="url(#pd52f556aa3)" style="fill: none; stroke: #3d3d3d; stroke-width: 2"/>
   </g>
   <g id="line2d_109">
    <path d="M 203.765208 254.496394 
L 219.558125 254.496394 
" clip-path="url(#pd52f556aa3)" style="fill: none; stroke: #3d3d3d; stroke-width: 2"/>
   </g>
   <g id="line2d_110">
    <path d="M 298.522708 250.568352 
L 314.315625 250.568352 
" clip-path="url(#pd52f556aa3)" style="fill: none; stroke: #3d3d3d; stroke-width: 2"/>
   </g>
   <g id="line2d_111">
    <path d="M 393.280208 234.163224 
L 409.073125 234.163224 
" clip-path="url(#pd52f556aa3)" style="fill: none; stroke: #3d3d3d; stroke-width: 2"/>
   </g>
   <g id="line2d_112">
    <path d="M 488.037708 249.071156 
L 503.830625 249.071156 
" clip-path="url(#pd52f556aa3)" style="fill: none; stroke: #3d3d3d; stroke-width: 2"/>
   </g>
   <g id="patch_21">
    <path d="M 53.7325 291.6 
L 53.7325 7.2 
" style="fill: none; stroke: #000000; stroke-width: 0.8; stroke-linejoin: miter; stroke-linecap: square"/>
   </g>
   <g id="patch_22">
    <path d="M 527.52 291.6 
L 527.52 7.2 
" style="fill: none; stroke: #000000; stroke-width: 0.8; stroke-linejoin: miter; stroke-linecap: square"/>
   </g>
   <g id="patch_23">
    <path d="M 53.7325 291.6 
L 527.52 291.6 
" style="fill: none; stroke: #000000; stroke-width: 0.8; stroke-linejoin: miter; stroke-linecap: square"/>
   </g>
   <g id="patch_24">
    <path d="M 53.7325 7.2 
L 527.52 7.2 
" style="fill: none; stroke: #000000; stroke-width: 0.8; stroke-linejoin: miter; stroke-linecap: square"/>
   </g>
   <g id="legend_1">
    <g id="patch_25">
     <path d="M 62.8325 72.766719 
L 200.120625 72.766719 
Q 202.720625 72.766719 202.720625 70.166719 
L 202.720625 16.3 
Q 202.720625 13.7 200.120625 13.7 
L 62.8325 13.7 
Q 60.2325 13.7 60.2325 16.3 
L 60.2325 70.166719 
Q 60.2325 72.766719 62.8325 72.766719 
z
" style="fill: #ffffff; opacity: 0.8; stroke: #cccccc; stroke-linejoin: miter"/>
    </g>
    <g id="patch_26">
     <path d="M 65.4325 28 
L 91.4325 28 
L 91.4325 18.9 
L 65.4325 18.9 
z
" style="fill: #3274a1; stroke: #3d3d3d; stroke-width: 2; stroke-linejoin: miter"/>
    </g>
    <g id="text_13">
     <!-- Healthy -->
     <g transform="translate(101.8325 28) scale(0.13 -0.13)">
      <defs>
       <path id="TimesNewRomanPSMT-68" d="M 1041 4444 
L 1041 2350 
Q 1388 2731 1591 2839 
Q 1794 2947 1997 2947 
Q 2241 2947 2416 2812 
Q 2591 2678 2675 2391 
Q 2734 2191 2734 1659 
L 2734 647 
Q 2734 375 2778 275 
Q 2809 200 2884 156 
Q 2959 113 3159 113 
L 3159 0 
L 1753 0 
L 1753 113 
L 1819 113 
Q 2019 113 2097 173 
Q 2175 234 2206 353 
Q 2216 403 2216 647 
L 2216 1659 
Q 2216 2128 2167 2275 
Q 2119 2422 2012 2495 
Q 1906 2569 1756 2569 
Q 1603 2569 1437 2487 
Q 1272 2406 1041 2159 
L 1041 647 
Q 1041 353 1073 281 
Q 1106 209 1195 161 
Q 1284 113 1503 113 
L 1503 0 
L 84 0 
L 84 113 
Q 275 113 384 172 
Q 447 203 484 290 
Q 522 378 522 647 
L 522 3238 
Q 522 3728 498 3840 
Q 475 3953 426 3993 
Q 378 4034 297 4034 
Q 231 4034 84 3984 
L 41 4094 
L 897 4444 
L 1041 4444 
z
" transform="scale(0.015625)"/>
      </defs>
      <use xlink:href="#TimesNewRomanPSMT-48"/>
      <use xlink:href="#TimesNewRomanPSMT-65" transform="translate(72.216797 0)"/>
      <use xlink:href="#TimesNewRomanPSMT-61" transform="translate(116.601562 0)"/>
      <use xlink:href="#TimesNewRomanPSMT-6c" transform="translate(160.986328 0)"/>
      <use xlink:href="#TimesNewRomanPSMT-74" transform="translate(188.769531 0)"/>
      <use xlink:href="#TimesNewRomanPSMT-68" transform="translate(216.552734 0)"/>
      <use xlink:href="#TimesNewRomanPSMT-79" transform="translate(266.552734 0)"/>
     </g>
    </g>
    <g id="patch_27">
     <path d="M 65.4325 46.405156 
L 91.4325 46.405156 
L 91.4325 37.305156 
L 65.4325 37.305156 
z
" style="fill: #e1812c; stroke: #3d3d3d; stroke-width: 2; stroke-linejoin: miter"/>
    </g>
    <g id="text_14">
     <!-- Patient Assisted -->
     <g transform="translate(101.8325 46.405156) scale(0.13 -0.13)">
      <defs>
       <path id="TimesNewRomanPSMT-50" d="M 1313 1984 
L 1313 750 
Q 1313 350 1400 253 
Q 1519 116 1759 116 
L 1922 116 
L 1922 0 
L 106 0 
L 106 116 
L 266 116 
Q 534 116 650 291 
Q 713 388 713 750 
L 713 3488 
Q 713 3888 628 3984 
Q 506 4122 266 4122 
L 106 4122 
L 106 4238 
L 1659 4238 
Q 2228 4238 2556 4120 
Q 2884 4003 3109 3725 
Q 3334 3447 3334 3066 
Q 3334 2547 2992 2222 
Q 2650 1897 2025 1897 
Q 1872 1897 1694 1919 
Q 1516 1941 1313 1984 
z
M 1313 2163 
Q 1478 2131 1606 2115 
Q 1734 2100 1825 2100 
Q 2150 2100 2386 2351 
Q 2622 2603 2622 3003 
Q 2622 3278 2509 3514 
Q 2397 3750 2190 3867 
Q 1984 3984 1722 3984 
Q 1563 3984 1313 3925 
L 1313 2163 
z
" transform="scale(0.015625)"/>
       <path id="TimesNewRomanPSMT-41" d="M 2928 1419 
L 1288 1419 
L 1000 750 
Q 894 503 894 381 
Q 894 284 986 211 
Q 1078 138 1384 116 
L 1384 0 
L 50 0 
L 50 116 
Q 316 163 394 238 
Q 553 388 747 847 
L 2238 4334 
L 2347 4334 
L 3822 809 
Q 4000 384 4145 257 
Q 4291 131 4550 116 
L 4550 0 
L 2878 0 
L 2878 116 
Q 3131 128 3220 200 
Q 3309 272 3309 375 
Q 3309 513 3184 809 
L 2928 1419 
z
M 2841 1650 
L 2122 3363 
L 1384 1650 
L 2841 1650 
z
" transform="scale(0.015625)"/>
      </defs>
      <use xlink:href="#TimesNewRomanPSMT-50"/>
      <use xlink:href="#TimesNewRomanPSMT-61" transform="translate(55.615234 0)"/>
      <use xlink:href="#TimesNewRomanPSMT-74" transform="translate(100 0)"/>
      <use xlink:href="#TimesNewRomanPSMT-69" transform="translate(127.783203 0)"/>
      <use xlink:href="#TimesNewRomanPSMT-65" transform="translate(155.566406 0)"/>
      <use xlink:href="#TimesNewRomanPSMT-6e" transform="translate(199.951172 0)"/>
      <use xlink:href="#TimesNewRomanPSMT-74" transform="translate(249.951172 0)"/>
      <use xlink:href="#TimesNewRomanPSMT-20" transform="translate(277.734375 0)"/>
      <use xlink:href="#TimesNewRomanPSMT-41" transform="translate(297.234375 0)"/>
      <use xlink:href="#TimesNewRomanPSMT-73" transform="translate(369.451172 0)"/>
      <use xlink:href="#TimesNewRomanPSMT-73" transform="translate(408.367188 0)"/>
      <use xlink:href="#TimesNewRomanPSMT-69" transform="translate(447.283203 0)"/>
      <use xlink:href="#TimesNewRomanPSMT-73" transform="translate(475.066406 0)"/>
      <use xlink:href="#TimesNewRomanPSMT-74" transform="translate(513.982422 0)"/>
      <use xlink:href="#TimesNewRomanPSMT-65" transform="translate(541.765625 0)"/>
      <use xlink:href="#TimesNewRomanPSMT-64" transform="translate(586.150391 0)"/>
     </g>
    </g>
    <g id="patch_28">
     <path d="M 65.4325 64.785937 
L 91.4325 64.785937 
L 91.4325 55.685937 
L 65.4325 55.685937 
z
" style="fill: #3a923a; stroke: #3d3d3d; stroke-width: 2; stroke-linejoin: miter"/>
    </g>
    <g id="text_15">
     <!-- Patient Unassisted -->
     <g transform="translate(101.8325 64.785937) scale(0.13 -0.13)">
      <defs>
       <path id="TimesNewRomanPSMT-55" d="M 3053 4122 
L 3053 4238 
L 4553 4238 
L 4553 4122 
L 4394 4122 
Q 4144 4122 4009 3913 
Q 3944 3816 3944 3463 
L 3944 1744 
Q 3944 1106 3817 754 
Q 3691 403 3320 151 
Q 2950 -100 2313 -100 
Q 1619 -100 1259 140 
Q 900 381 750 788 
Q 650 1066 650 1831 
L 650 3488 
Q 650 3878 542 4000 
Q 434 4122 194 4122 
L 34 4122 
L 34 4238 
L 1866 4238 
L 1866 4122 
L 1703 4122 
Q 1441 4122 1328 3956 
Q 1250 3844 1250 3488 
L 1250 1641 
Q 1250 1394 1295 1075 
Q 1341 756 1459 578 
Q 1578 400 1801 284 
Q 2025 169 2350 169 
Q 2766 169 3094 350 
Q 3422 531 3542 814 
Q 3663 1097 3663 1772 
L 3663 3488 
Q 3663 3884 3575 3984 
Q 3453 4122 3213 4122 
L 3053 4122 
z
" transform="scale(0.015625)"/>
      </defs>
      <use xlink:href="#TimesNewRomanPSMT-50"/>
      <use xlink:href="#TimesNewRomanPSMT-61" transform="translate(55.615234 0)"/>
      <use xlink:href="#TimesNewRomanPSMT-74" transform="translate(100 0)"/>
      <use xlink:href="#TimesNewRomanPSMT-69" transform="translate(127.783203 0)"/>
      <use xlink:href="#TimesNewRomanPSMT-65" transform="translate(155.566406 0)"/>
      <use xlink:href="#TimesNewRomanPSMT-6e" transform="translate(199.951172 0)"/>
      <use xlink:href="#TimesNewRomanPSMT-74" transform="translate(249.951172 0)"/>
      <use xlink:href="#TimesNewRomanPSMT-20" transform="translate(277.734375 0)"/>
      <use xlink:href="#TimesNewRomanPSMT-55" transform="translate(302.734375 0)"/>
      <use xlink:href="#TimesNewRomanPSMT-6e" transform="translate(374.951172 0)"/>
      <use xlink:href="#TimesNewRomanPSMT-61" transform="translate(424.951172 0)"/>
      <use xlink:href="#TimesNewRomanPSMT-73" transform="translate(469.335938 0)"/>
      <use xlink:href="#TimesNewRomanPSMT-73" transform="translate(508.251953 0)"/>
      <use xlink:href="#TimesNewRomanPSMT-69" transform="translate(547.167969 0)"/>
      <use xlink:href="#TimesNewRomanPSMT-73" transform="translate(574.951172 0)"/>
      <use xlink:href="#TimesNewRomanPSMT-74" transform="translate(613.867188 0)"/>
      <use xlink:href="#TimesNewRomanPSMT-65" transform="translate(641.650391 0)"/>
      <use xlink:href="#TimesNewRomanPSMT-64" transform="translate(686.035156 0)"/>
     </g>
    </g>
   </g>
  </g>
 </g>
 <defs>
  <clipPath id="pd52f556aa3">
   <rect x="53.7325" y="7.2" width="473.7875" height="284.4"/>
  </clipPath>
 </defs>
</svg>
